PathFileType	4	(X/Y/Z)	C:/Users/beibeiliu/ov580/test_trc/capture2\sequence.11_training_dense_right.trc
DataRate	CameraRate	NumFrames	NumMarkers	Units	OrigDataRate	OrigDataStartFrame	OrigNumFrames
120	120	24	19	mm	120	132	350
Frame#	Time	ThumbCMC			ThumbMCP			ThumbIP			ThumbTip			IndexMCP			IndexPIP			IndexTip			MiddleMCP			MiddlePIP			MiddleTip			RingMCP			RingPIP			RingTip			PinkyMCP			PinkyPIP			PinkyTip			BackHand1			BackHand2			BackHand3	
		X0	Y0	Z0	X1	Y1	Z1	X2	Y2	Z2	X3	Y3	Z3	X4	Y4	Z4	X5	Y5	Z5	X6	Y6	Z6	X7	Y7	Z7	X8	Y8	Z8	X9	Y9	Z9	X10	Y10	Z10	X11	Y11	Z11	X12	Y12	Z12	X13	Y13	Z13	X14	Y14	Z14	X15	Y15	Z15	X16	Y16	Z16	X17	Y17	Z17	X18	Y18	Z18	
131	1.09167	117.788	-42.7307	-24.9061	115.004	-65.9896	-36.9598	105.71	-84.273	-59.7654	101.336	-94.9791	-74.5496	106.233	-31.2832	-91.3966	102.388	-38.6918	-115.95	101.825	-46.3646	-141.469	126.235	-5.02204	-99.5328	126.865	-7.6568	-131.732	131.914	-7.71579	-159.609	147.355	7.18727	-97.0898	152.163	8.13666	-123.007	160.043	7.04507	-150.864	170.845	15.4382	-86.0066	184.566	17.3055	-103.535	193.347	29.5315	-117.436	138.507	10.3056	-46.5097	139.643	14.7112	-20.5907	117.32	-7.80178	-35.4756	
132	1.1	115.84	-47.6579	-18.619	114.068	-69.6171	-35.4929	105.902	-86.4437	-59.0404	104.583	-96.1559	-76.0351	109.308	-30.498	-92.4664	105.143	-40.1338	-116.641	100.735	-51.4444	-144.24	121.815	-9.23153	-99.0706	125.841	-9.46746	-130.049	130.255	-11.0691	-155.274	145.58	5.0221	-98.132	149.884	5.61334	-120.472	155.685	2.62295	-149.523	169.316	13.1841	-82.8164	182.255	15.5251	-104.595	190.69	23.8638	-119.977	137.964	12.0767	-45.8764	141.971	13.7045	-16.0485	115.11	-9.81366	-29.4706	
133	1.10833	114.085	-49.8704	-17.368	114.822	-69.7339	-39.9356	108.705	-84.3077	-57.0122	103.273	-97.6739	-75.8078	103.805	-36.1134	-91.7546	102.241	-45.2273	-115.757	102.949	-48.8396	-143.986	124.1	-9.19826	-100.176	122.595	-14.4586	-123.86	128.591	-14.1952	-154.058	145.128	3.31399	-95.1389	151.472	4.79511	-119.292	157.924	3.21291	-145.406	171.071	11.9849	-83.5749	183.631	14.2448	-102.143	188.447	20.1369	-117.511	137.838	7.30059	-45.8255	136.071	8.50875	-18.0099	113.827	-13.9465	-29.9106	
134	1.11667	114.216	-47.4251	-17.5825	112.818	-69.2387	-36.4343	100.768	-87.5343	-58.1605	95.1361	-98.1078	-76.7525	103.696	-32.3687	-90.4897	98.2644	-44.1511	-112.325	98.9568	-49.8276	-141.577	119.095	-11.9056	-98.121	122.138	-13.6462	-125.205	127.808	-16.1577	-157.285	141.603	0.0683703	-94.6964	148.69	0.868234	-117.273	153.309	-2.80589	-148.311	167.098	7.03813	-80.1266	180.118	8.23028	-102.315	188.453	17.5089	-117.403	135.018	5.87619	-41.5669	138.695	6.27637	-11.5684	114.752	-10.8716	-26.8445	
135	1.125	108.543	-45.8029	-19.9648	104.852	-68.4395	-37.0498	95.2311	-82.8324	-59.7045	90.6342	-91.393	-77.5785	99.8122	-30.3003	-88.2326	98.5616	-35.7342	-114.553	98.147	-40.8741	-140.644	120.931	-6.77474	-99.9212	122.141	-8.98928	-124.994	125.43	-11.9112	-151.932	142.63	2.42162	-97.3218	149.297	2.43116	-120.836	155.789	0.979996	-143.303	168.418	6.43745	-81.0268	183.144	9.58015	-100.543	192.344	18.7354	-116.237	137.624	7.2889	-45.2627	136.984	9.22047	-11.753	113.359	-10.1072	-31.1301	
136	1.13333	107.152	-43.1153	-18.0267	104.583	-61.9917	-39.7918	95.2206	-75.4898	-60.0943	86.3457	-86.0599	-78.8233	102.407	-22.2671	-89.7653	93.819	-32.8609	-112.915	95.5452	-36.638	-142.83	121.578	-3.76891	-98.9963	120.234	-6.7959	-122.656	126.087	-8.44525	-152.087	145.509	5.62039	-93.494	151.266	4.91516	-117.581	156.188	3.89968	-145.777	168.972	8.56709	-81.472	184.229	9.01915	-99.6583	192.195	17.6471	-117.912	137.83	10.9413	-45.3853	141.727	10.9887	-11.9564	112.846	-5.03418	-30.8672	
137	1.14167	104.857	-39.0872	-19.8566	100.229	-58.3343	-41.473	88.4196	-71.9122	-62.8559	85.2002	-81.385	-78.7038	98.9663	-18.6638	-94.228	93.2721	-27.7123	-115.476	90.2531	-31.5124	-140.845	121.014	0.716669	-99.9373	119.156	-1.76152	-129.296	123.643	-4.91729	-155.021	145.025	10.7522	-97.6553	149.447	9.27023	-122.916	154.934	6.33519	-148.875	170.355	11.4594	-85.8351	182.979	12.0111	-100.016	198.51	20.8972	-117.016	140.56	16.8405	-44.2836	135.828	14.4291	-15.2157	110.398	-3.07161	-32.5142	
138	1.15	101.782	-35.5007	-22.0812	95.5219	-55.266	-40.5032	84.8144	-68.6348	-62.8181	76.9919	-80.0044	-80.0558	98.3639	-14.0391	-95.5508	90.2573	-23.0053	-119.057	89.8831	-25.2248	-142.891	119.444	4.65212	-102.07	120.406	1.42666	-130.616	126.903	1.20252	-154.112	144.525	11.2588	-95.0392	152.613	13.0828	-122.453	154.919	8.66143	-148.493	170.271	13.2249	-85.5312	182.486	12.7466	-100.865	197.158	22.3834	-117.441	136.387	17.6882	-47.2915	138.674	18.0872	-16.7446	111.667	0.267995	-30.5063	
139	1.15833	102.127	-31.3896	-22.0528	94.7545	-50.2647	-43.5724	81.3773	-64.8094	-63.3086	76.5893	-73.0352	-80.7561	93.5832	-13.4671	-93.9531	88.1679	-20.5953	-119.453	86.8114	-22.4048	-141.092	117.929	6.31055	-100.775	120.55	4.43706	-130.19	126.908	2.96276	-155.471	142.024	10.243	-95.3701	151.166	12.2595	-119.166	157.332	9.50663	-149.118	172.311	12.196	-83.8698	180.986	10.9014	-98.2876	196.48	19.9015	-116.818	136.125	16.7374	-46.8344	137.298	18.3821	-15.4191	110.915	3.63422	-31.216	
140	1.16667	98.4666	-27.0616	-24.4125	87.0285	-48.6588	-40.5352	78.66	-59.8822	-60.1807	70.9697	-67.8431	-81.3468	94.795	-9.03597	-91.6871	90.3941	-13.8733	-121.042	84.2759	-17.6709	-143.596	118.643	7.81556	-97.8772	119.409	6.54799	-128.856	127.167	6.30242	-155.659	146.601	13.5725	-96.2937	149.925	11.7955	-120.413	159.662	10.077	-148.591	169.917	9.75607	-80.2994	180.717	8.20367	-96.9571	196.856	17.1386	-118.567	142.049	17.7192	-43.2933	139.085	17.4201	-17.0476	107.72	4.99621	-31.5807	
141	1.175	95.0675	-23.6113	-21.2531	87.8093	-42.1267	-44.3942	73.7387	-53.4048	-64.3842	70.3564	-61.3569	-82.5066	93.2392	-3.49544	-95.4614	91.9579	-6.27606	-119.557	88.8806	-9.69776	-144.634	123.917	12.1861	-98.9643	120.672	9.81906	-127.79	126.785	8.91525	-155.033	144.71	13.4721	-98.7796	154.798	13.4593	-122.304	158	11.1042	-145.227	174.418	10.1098	-79.6947	186.237	7.48638	-100.107	200.694	13.8872	-113.734	139.386	19.946	-46.7403	142.954	21.9458	-14.7062	113.776	11.4718	-32.5787	
142	1.18333	94.6877	-17.1684	-26.9717	83.2407	-35.888	-42.7616	72.3368	-45.4265	-66.1942	68.0485	-53.3763	-82.7197	98.6901	3.53199	-95.9694	91.6083	-2.05424	-119.046	87.9268	-3.79339	-144.133	126.33	15.8425	-102.017	128.833	14.4512	-126.596	131.446	11.3594	-159.908	150.951	15.8472	-100.081	155.032	14.1226	-119.222	163.538	10.9079	-150.061	177.098	8.66998	-82.5063	186.126	5.48631	-98.5896	205.535	13.0828	-113.053	144.319	20.3613	-43.4908	147.743	24.3468	-19.1924	112.751	16.2891	-33.9327	
143	1.19167	98.0602	-10.2298	-28.5722	84.0837	-28.7142	-42.9072	70.4504	-38.8672	-67.5465	63.7396	-45.3717	-87.886	101.843	7.43935	-94.5665	93.5906	2.83044	-123.063	94.0901	2.38245	-147.508	131.402	17.5993	-100.471	134.072	16.5708	-127.655	135.443	13.4892	-159.493	154.542	14.7716	-94.8639	164.884	13.0708	-124.221	168.083	9.8199	-147.417	179.842	5.99881	-79.4805	191.953	0.97259	-96.2065	205.397	7.6335	-115.959	147.636	23.6328	-49.091	148.648	22.1405	-14.3075	118.811	17.7097	-35.2333	
144	1.2	99.2374	-5.14823	-24.3886	83.083	-23.1363	-44.9151	72.7505	-30.8604	-67.8008	62.3716	-38.2806	-85.7502	104.939	12.6519	-99.2518	100.999	9.40654	-125.255	94.4518	7.96396	-145.796	133.65	18.3474	-100.294	138.427	17.43	-130.177	140.982	15.8303	-157.283	160.245	14.7184	-98.3269	168.803	11.6986	-118.856	175.741	8.48394	-148.595	185.326	3.06969	-80.3316	196.5	-1.76461	-100.473	208.41	0.839106	-112.889	153.779	21.0611	-49.6299	152.143	23.4203	-14.4453	122.786	24.0167	-37.0374	
145	1.20833	101.157	1.03116	-27.4792	85.8451	-15.1184	-49.0681	70.76	-23.2198	-68.2473	61.2054	-28.634	-87.6068	112.517	18.0071	-101.12	105.184	15.7472	-122.865	99.7834	14.677	-147.892	141.048	22.4285	-100.677	143.531	21.0937	-128.735	148.751	18.3117	-156.948	164.029	15.701	-97.5312	172.567	12.4663	-122.217	180.77	6.66406	-147.456	185.727	1.35092	-80.7504	197.027	-5.40614	-97.003	216.578	-4.88092	-110.395	161.813	22.4563	-45.6405	157.733	24.1606	-16.5365	130.152	27.6015	-36.0762	
146	1.21667	102.141	7.06207	-31.4941	87.7441	-8.22746	-46.9267	71.4485	-14.1639	-70.8327	62.0506	-20.6183	-86.8871	113.005	23.057	-101.706	107.531	19.6894	-120.988	107.612	18.9819	-150.836	145.697	22.4019	-101.299	149.507	21.0801	-129.809	154.177	17.8657	-160.373	168.571	11.9044	-95.1056	176.511	7.91534	-121.614	182.962	3.43824	-145.405	190.338	-3.76577	-82.3912	199.699	-11.2059	-98.777	214.927	-12.6054	-115.422	162.039	23.9122	-48.8454	162.101	21.6899	-17.8116	132.709	28.1989	-34.2452	
147	1.225	102.718	12.6016	-30.8125	87.7311	-1.83687	-47.4507	73.1464	-6.0166	-69.6504	63.6603	-10.8971	-89.5449	122.639	24.986	-99.7539	115.678	23.5846	-124.254	112.448	22.1735	-151.007	153.952	22.2862	-103.216	154.093	21.026	-131.963	155.849	17.2543	-160.233	170.741	9.65495	-95.7495	179.697	4.54657	-118.667	185.823	-0.897646	-144.576	187.097	-6.76289	-79.2923	199.69	-17.8953	-94.3383	217.35	-20.791	-109.01	166.158	21.1664	-45.4039	163.586	21.0753	-18.9073	138.409	29.5669	-33.7185	
148	1.23333	107.538	18.6259	-31.1022	87.4072	6.66993	-50.6642	72.3859	4.25061	-73.8981	62.7026	-0.310095	-90.7973	125.679	30.4333	-102.163	120.976	27.2453	-128.061	116.301	27.9104	-151.971	156.523	23.5792	-103.528	160.956	20.8844	-127.265	164.556	15.272	-158.986	174.138	9.01292	-97.6585	183.882	2.01009	-117.964	186.472	-4.74188	-144.38	192.226	-11.2276	-80.6217	203.535	-24.5475	-94.2185	217.632	-31.5354	-112.246	171.167	18.2882	-47.2724	167.19	21.554	-16.6246	144.362	33.8423	-34.5565	
149	1.24167	108.095	24.3853	-31.5191	92.4911	12.9369	-48.5358	73.5812	12.1989	-74.1025	67.498	6.44871	-94.348	134.597	31.5351	-101.712	128.709	29.4407	-125.037	127.578	29.5101	-149.642	160.666	22.9317	-101.462	164.177	19.162	-128.71	170.001	12.8766	-158.794	176.406	6.41806	-96.652	184.29	-1.83538	-117.372	191.075	-10.7951	-146.869	192.168	-15.9116	-80.842	202.121	-28.8435	-94.1799	216.251	-39.4538	-110.948	173.598	18.5983	-46.0089	172.533	19.8839	-16.7757	145.272	36.0973	-37.8073	
150	1.25	113.195	28.5992	-32.514	94.5017	18.9873	-54.3112	79.3857	18.517	-74.2652	67.6607	17.3589	-96.1166	137.014	33.8033	-101.843	131.14	33.7631	-125.451	129.103	32.1473	-155.223	166.916	19.9736	-104.355	170.571	14.967	-131.936	174.054	7.85498	-160.279	180.143	1.9785	-94.8775	187.97	-6.6831	-121.428	190.468	-14.2434	-143.094	190.237	-18.0008	-79.1567	199.307	-32.0109	-91.0056	214.645	-46.4865	-107.993	176.716	17.127	-48.6884	173.551	19.2808	-19.4213	151.393	35.553	-39.4565	
151	1.25833	116.76	32.1986	-36.4421	96.075	24.3716	-53.5029	85.2493	23.6499	-78.7614	73.4858	21.809	-97.9255	141.774	33.9215	-102.047	140.329	31.0092	-126.811	138.915	30.2792	-156.442	170.837	16.5111	-101.871	173.686	12.1701	-129.747	174.757	5.89579	-157.601	186.137	-4.05291	-98.2359	190.762	-12.5036	-120.547	192.354	-22.0121	-141.294	193.307	-24.7272	-75.6103	199.719	-38.7991	-92.9709	210.919	-55.0977	-109.178	178.815	13.8565	-47.5596	178.346	14.2751	-14.6547	155.255	34.6564	-39.1925	
152	1.26667	123.898	32.352	-35.8482	101.625	28.6968	-53.6845	85.1456	31.8046	-81.0191	76.9323	31.0118	-98.9303	150.812	32.1638	-103.451	146.056	32.7004	-129.375	145.78	30.1288	-155.252	176.504	14.3356	-107.367	176.13	9.88712	-132.351	181.082	-1.5465	-158.73	185.974	-5.98928	-94.975	188.954	-13.3895	-117.377	190.951	-24.6259	-142.357	190.469	-26.6752	-77.9662	198.373	-46.7052	-93.7964	205.864	-58.7781	-108.346	185.899	8.51715	-46.0644	176.346	14.0658	-15.7668	158.702	34.7532	-37.8391	
153	1.275	127.915	36.9166	-34.038	106.409	34.6835	-55.6461	91.8887	38.7236	-81.8526	80.9021	38.1459	-98.9301	153.384	35.4069	-105.634	151.659	33.6251	-130.078	152.567	29.9841	-154.639	176.602	13.9032	-102.837	180.124	4.09786	-133.631	179.664	-3.14146	-161.912	187.516	-8.29253	-98.4256	190.355	-20.2828	-119.797	191.901	-32.7314	-142.986	190.271	-31.5358	-78.4301	193.616	-50.0735	-94.4468	199.244	-65.1376	-113.251	186.454	5.24185	-47.7561	183.032	10.5734	-19.7546	165.063	32.36	-37.5658	
154	1.28333	134.203	37.9396	-35.5462	113.088	39.228	-57.6449	99.747	43.2443	-81.1754	89.4613	45.9215	-101.831	161.605	31.8193	-108.096	157.425	33.5597	-132.328	158.231	28.2166	-156.305	181.547	7.7961	-104.441	182.848	0.235714	-129.562	181.723	-8.55536	-160.753	187.661	-14.5097	-93.8035	190.798	-28.4543	-115.4	189.135	-36.3686	-141.851	186.495	-37.4166	-75.5749	188.053	-53.7004	-90.7427	193.729	-71.4029	-107.207	184.486	1.89631	-45.7033	183.822	3.80352	-16.597	170.619	32.7357	-39.5657	
